<svg width="57" height="57" viewBox="0 0 57 57" fill="none" xmlns="http://www.w3.org/2000/svg">
<path d="M28.4001 16.7001C21.3436 16.7001 15.4968 22.4001 15.4968 29.5001C15.4968 36.6001 21.2428 42.3001 28.4001 42.3001C35.5573 42.3001 41.3033 36.5001 41.3033 29.5001C41.3033 22.5001 35.4565 16.7001 28.4001 16.7001ZM28.4001 37.7001C23.8638 37.7001 20.1339 34.0001 20.1339 29.5001C20.1339 25.0001 23.8638 21.3001 28.4001 21.3001C32.9363 21.3001 36.6662 25.0001 36.6662 29.5001C36.6662 34.0001 32.9363 37.7001 28.4001 37.7001Z" fill="white"/>
<path d="M41.8072 19.3C43.4217 19.3 44.7306 18.0016 44.7306 16.4C44.7306 14.7984 43.4217 13.5 41.8072 13.5C40.1926 13.5 38.8838 14.7984 38.8838 16.4C38.8838 18.0016 40.1926 19.3 41.8072 19.3Z" fill="white"/>
<path d="M49.3678 8.90005C46.7468 6.20005 43.017 4.80005 38.7831 4.80005H18.017C9.2468 4.80005 3.40002 10.6 3.40002 19.3V39.8C3.40002 44.1 4.81131 47.8 7.6339 50.5C10.3557 53.1 13.9847 54.4001 18.1178 54.4001H38.6823C43.017 54.4001 46.646 53 49.267 50.5C51.9887 47.9 53.4 44.2001 53.4 39.9001V19.3C53.4 15.1 51.9887 11.5 49.3678 8.90005ZM48.9645 39.9001C48.9645 43.0001 47.8557 45.5001 46.0412 47.2001C44.2266 48.9001 41.7065 49.8 38.6823 49.8H18.1178C15.0936 49.8 12.5734 48.9001 10.7589 47.2001C8.94438 45.4001 8.03712 42.9 8.03712 39.8V19.3C8.03712 16.3 8.94438 13.8 10.7589 12C12.4726 10.3 15.0936 9.40005 18.1178 9.40005H38.8839C41.9081 9.40005 44.4282 10.3 46.2428 12.1C47.9565 13.9 48.9645 16.4 48.9645 19.3V39.9001Z" fill="white"/>
</svg>
