<svg width="50" height="50" viewBox="0 0 50 50" fill="none" xmlns="http://www.w3.org/2000/svg">
<path d="M40.6153 32.7637C39.1895 31.2988 35.1367 28.5547 32.4805 28.5547C31.8653 28.5547 31.3281 28.6914 30.8887 28.9746C29.5899 29.8047 28.5547 30.4492 28.0567 30.4492C27.7832 30.4492 27.4903 30.2051 26.8457 29.6484L26.7383 29.5508C24.9512 27.998 24.5703 27.5977 23.877 26.875L23.7012 26.6895C23.5742 26.5625 23.4668 26.4453 23.3594 26.3379C22.7539 25.7129 22.3145 25.2637 20.7617 23.5059L20.6934 23.4277C19.9512 22.5879 19.4629 22.041 19.4336 21.6406C19.4043 21.25 19.7461 20.6152 20.6153 19.4336C21.6699 18.0078 21.709 16.25 20.7422 14.209C19.9707 12.5977 18.711 11.0547 17.5977 9.69727L17.5 9.58008C16.543 8.4082 15.4297 7.82227 14.1895 7.82227C12.8125 7.82227 11.6699 8.56445 11.0645 8.95508C11.0156 8.98437 10.9668 9.02344 10.918 9.05273C9.56057 9.91211 8.57424 11.0938 8.20315 12.2949C7.64651 14.1016 7.27542 16.4453 9.94143 21.3184C12.2461 25.5371 14.336 28.3691 17.6563 31.7773C20.7813 34.9805 22.168 36.0156 25.2735 38.2617C28.7305 40.7617 32.0508 42.1973 34.375 42.1973C36.5332 42.1973 38.2324 42.1973 40.6543 39.2773C43.1934 36.2109 42.1387 34.3359 40.6153 32.7637Z" fill="white"/>
</svg>
