<svg width="71" height="24" viewBox="0 0 71 24" fill="none" xmlns="http://www.w3.org/2000/svg">
<path d="M13.272 21.88L1.512 16.648V13.12L13.272 7.888V11.752L4.68 14.872L13.272 17.992V21.88ZM25.3564 4.912L18.6364 23.68H14.8444L21.5644 4.912H25.3564ZM32.3475 14.392C32.3475 13.832 32.1875 13.392 31.8675 13.072C31.5635 12.736 31.1475 12.568 30.6195 12.568C30.0915 12.568 29.6355 12.704 29.2515 12.976C28.8835 13.232 28.6275 13.696 28.4835 14.368L25.0275 13.552C25.2515 12.4 25.8435 11.48 26.8035 10.792C27.7635 10.104 29.1155 9.76 30.8595 9.76C32.0275 9.76 33.0195 9.936 33.8355 10.288C34.6675 10.624 35.2995 11.136 35.7315 11.824C36.1795 12.496 36.4035 13.328 36.4035 14.32V18.712C36.4035 19.336 36.6835 19.648 37.2435 19.648C37.5315 19.648 37.7635 19.616 37.9395 19.552L37.6995 21.88C37.2195 22.104 36.6355 22.216 35.9475 22.216C35.3235 22.216 34.7715 22.12 34.2915 21.928C33.8115 21.72 33.4355 21.416 33.1635 21.016C32.8915 20.6 32.7555 20.08 32.7555 19.456V19.312L33.2115 19.144C33.2115 19.832 33.0035 20.408 32.5875 20.872C32.1875 21.336 31.6595 21.68 31.0035 21.904C30.3635 22.128 29.6915 22.24 28.9875 22.24C28.1715 22.24 27.4595 22.112 26.8515 21.856C26.2435 21.6 25.7715 21.232 25.4355 20.752C25.1155 20.256 24.9555 19.648 24.9555 18.928C24.9555 18.064 25.2115 17.352 25.7235 16.792C26.2515 16.216 27.0755 15.816 28.1955 15.592L32.7315 14.656L32.7075 16.816L30.4035 17.296C29.9235 17.392 29.5635 17.536 29.3235 17.728C29.0995 17.904 28.9875 18.176 28.9875 18.544C28.9875 18.896 29.1155 19.16 29.3715 19.336C29.6275 19.512 29.9315 19.6 30.2835 19.6C30.5555 19.6 30.8115 19.56 31.0515 19.48C31.3075 19.4 31.5315 19.28 31.7235 19.12C31.9155 18.944 32.0675 18.728 32.1795 18.472C32.2915 18.216 32.3475 17.912 32.3475 17.56V14.392ZM46.6678 14.392C46.6678 13.832 46.5078 13.392 46.1878 13.072C45.8838 12.736 45.4678 12.568 44.9398 12.568C44.4118 12.568 43.9558 12.704 43.5718 12.976C43.2038 13.232 42.9478 13.696 42.8038 14.368L39.3478 13.552C39.5718 12.4 40.1638 11.48 41.1238 10.792C42.0838 10.104 43.4358 9.76 45.1798 9.76C46.3478 9.76 47.3398 9.936 48.1558 10.288C48.9878 10.624 49.6198 11.136 50.0518 11.824C50.4998 12.496 50.7238 13.328 50.7238 14.32V18.712C50.7238 19.336 51.0038 19.648 51.5638 19.648C51.8518 19.648 52.0838 19.616 52.2598 19.552L52.0198 21.88C51.5398 22.104 50.9558 22.216 50.2678 22.216C49.6438 22.216 49.0918 22.12 48.6118 21.928C48.1318 21.72 47.7558 21.416 47.4838 21.016C47.2118 20.6 47.0758 20.08 47.0758 19.456V19.312L47.5318 19.144C47.5318 19.832 47.3238 20.408 46.9078 20.872C46.5078 21.336 45.9798 21.68 45.3238 21.904C44.6838 22.128 44.0118 22.24 43.3078 22.24C42.4918 22.24 41.7798 22.112 41.1718 21.856C40.5638 21.6 40.0918 21.232 39.7558 20.752C39.4358 20.256 39.2758 19.648 39.2758 18.928C39.2758 18.064 39.5318 17.352 40.0438 16.792C40.5718 16.216 41.3958 15.816 42.5158 15.592L47.0518 14.656L47.0278 16.816L44.7238 17.296C44.2438 17.392 43.8838 17.536 43.6438 17.728C43.4198 17.904 43.3078 18.176 43.3078 18.544C43.3078 18.896 43.4358 19.16 43.6918 19.336C43.9478 19.512 44.2518 19.6 44.6038 19.6C44.8758 19.6 45.1318 19.56 45.3718 19.48C45.6278 19.4 45.8518 19.28 46.0438 19.12C46.2358 18.944 46.3878 18.728 46.4998 18.472C46.6118 18.216 46.6678 17.912 46.6678 17.56V14.392ZM53.6303 7.888L65.3903 13.12V16.648L53.6303 21.88V18.016L62.2223 14.896L53.6303 11.776V7.888Z" fill="#FFFAFF"/>
</svg>
